<svg version="1.1" id="Layer_1" xmlns="http://www.w3.org/2000/svg" xmlns:xlink="http://www.w3.org/1999/xlink" x="0px" y="0px"
	 width="100%" viewBox="0 0 104 108" enable-background="new 0 0 104 108" xml:space="preserve">
<path fill="#FFFDFD" opacity="1.000000" stroke="none" 
	d="
M1.000000,94.000000 
	C1.000000,63.071537 1.000000,32.143070 1.000000,1.000000 
	C33.020576,1.000000 65.041626,1.000000 97.358139,1.298360 
	C96.102318,1.964769 94.551056,2.332819 92.582031,2.719252 
	C85.786346,3.934834 79.419395,5.195675 73.025284,6.299042 
	C70.330551,6.764045 69.072098,7.956066 68.838173,10.854264 
	C68.722565,12.286547 67.388321,14.249339 66.095337,14.823705 
	C63.586693,15.938087 60.738190,16.351719 57.994469,16.861862 
	C43.219776,19.608927 28.419939,22.224783 13.675033,25.121376 
	C12.282496,25.394934 10.401061,27.143816 10.137415,28.481798 
	C9.222504,33.124878 8.921213,37.888866 8.326950,43.132156 
	C19.965008,40.699482 30.982609,38.396500 42.423103,36.120361 
	C49.550838,34.906990 56.302124,33.861725 62.926445,32.283527 
	C64.497002,31.909351 65.625404,29.730822 66.986671,28.412722 
	C68.467712,26.978647 69.780205,24.726763 71.518578,24.313406 
	C79.119591,22.506004 86.879089,21.372520 94.505379,19.657835 
	C96.050819,19.310358 98.233658,17.673288 98.465736,16.341911 
	C99.345978,11.292233 99.545753,6.123936 100.000000,1.000000 
	C101.663185,1.000000 103.326370,1.000000 104.992172,1.000000 
	C104.994781,36.921314 104.994781,72.842628 104.994781,108.881973 
	C70.333649,108.881973 35.666866,108.881973 1.000000,108.881973 
	C1.000000,105.960609 1.000000,102.966873 1.425359,99.526802 
	C19.483028,95.761971 37.102318,92.371147 54.759651,89.191605 
	C57.938961,88.619110 59.945549,87.805443 60.257584,84.105186 
	C60.355534,82.943680 62.427551,81.318596 63.840805,81.003441 
	C71.308067,79.338249 78.893387,78.195999 86.345154,76.472076 
	C88.333450,76.012093 91.213036,74.430550 91.580635,72.868935 
	C92.697281,68.125206 92.785156,63.139317 93.347504,57.508564 
	C83.190460,59.505875 73.903122,61.219563 64.696625,63.292305 
	C63.607922,63.537411 62.279545,65.730621 62.242657,67.053688 
	C62.143471,70.610924 60.117107,71.518845 57.199661,71.899506 
	C55.057350,72.179016 52.936363,72.631874 50.812687,73.042717 
	C35.000347,76.101768 19.189709,79.169617 3.801444,82.152718 
	C2.781655,86.465393 1.890828,90.232697 1.000000,94.000000 
M67.251572,52.669140 
	C75.251823,51.103245 83.267586,49.609737 91.237625,47.902771 
	C92.624107,47.605820 94.761909,46.581070 94.942207,45.597305 
	C95.887634,40.438877 96.314789,35.185459 97.007690,29.228584 
	C86.984406,31.208344 77.709183,32.960617 68.490433,34.971699 
	C67.449409,35.198803 66.018265,36.859730 65.980225,37.900097 
	C65.822189,42.222012 63.214699,43.239071 59.591290,43.903202 
	C43.390053,46.872707 27.215593,49.991814 11.058810,53.194839 
	C9.489545,53.505939 7.036801,54.550663 6.822767,55.620628 
	C5.829584,60.585583 5.481318,65.679550 4.850128,71.180832 
	C23.881609,67.533333 42.145157,64.096863 60.356400,60.402580 
	C61.602852,60.149731 62.470371,57.976246 63.490997,56.677803 
	C64.488594,55.408649 65.456566,54.116207 67.251572,52.669140 
z"/>
<path fill="#FF4B60" opacity="1.000000" stroke="none" 
	d="
M1.000000,94.416664 
	C1.890828,90.232697 2.781655,86.465393 3.801444,82.152718 
	C19.189709,79.169617 35.000347,76.101768 50.812687,73.042717 
	C52.936363,72.631874 55.057350,72.179016 57.199661,71.899506 
	C60.117107,71.518845 62.143471,70.610924 62.242657,67.053688 
	C62.279545,65.730621 63.607922,63.537411 64.696625,63.292305 
	C73.903122,61.219563 83.190460,59.505875 93.347504,57.508564 
	C92.785156,63.139317 92.697281,68.125206 91.580635,72.868935 
	C91.213036,74.430550 88.333450,76.012093 86.345154,76.472076 
	C78.893387,78.195999 71.308067,79.338249 63.840805,81.003441 
	C62.427551,81.318596 60.355534,82.943680 60.257584,84.105186 
	C59.945549,87.805443 57.938961,88.619110 54.759651,89.191605 
	C37.102318,92.371147 19.483028,95.761971 1.425359,99.040237 
	C1.000000,97.611107 1.000000,96.222221 1.000000,94.416664 
z"/>
<path fill="#FF4F58" opacity="1.000000" stroke="none" 
	d="
M92.999786,2.700868 
	C94.551056,2.332819 96.102318,1.964769 97.826797,1.298360 
	C98.444443,1.000000 98.888893,1.000000 99.666672,1.000000 
	C99.545753,6.123936 99.345978,11.292233 98.465736,16.341911 
	C98.233658,17.673288 96.050819,19.310358 94.505379,19.657835 
	C86.879089,21.372520 79.119591,22.506004 71.518578,24.313406 
	C69.780205,24.726763 68.467712,26.978647 66.986671,28.412722 
	C65.625404,29.730822 64.497002,31.909351 62.926445,32.283527 
	C56.302124,33.861725 49.550838,34.906990 42.457703,35.760941 
	C43.247612,34.311001 44.289032,33.012398 45.631466,32.230801 
	C48.770058,30.403425 52.112095,28.927458 55.267010,27.125776 
	C66.347122,20.798246 77.439545,14.487581 88.381905,7.927979 
	C90.282639,6.788546 91.478409,4.473122 92.999786,2.700868 
z"/>
<path fill="#FF4E5C" opacity="1.000000" stroke="none" 
	d="
M66.844559,52.751564 
	C65.456566,54.116207 64.488594,55.408649 63.490997,56.677803 
	C62.470371,57.976246 61.602852,60.149731 60.356400,60.402580 
	C42.145157,64.096863 23.881609,67.533333 4.850128,71.180832 
	C5.481318,65.679550 5.829584,60.585583 6.822767,55.620628 
	C7.036801,54.550663 9.489545,53.505939 11.058810,53.194839 
	C27.215593,49.991814 43.390053,46.872707 59.591290,43.903202 
	C63.214699,43.239071 65.822189,42.222012 65.980225,37.900097 
	C66.018265,36.859730 67.449409,35.198803 68.490433,34.971699 
	C77.709183,32.960617 86.984406,31.208344 97.007690,29.228584 
	C96.314789,35.185459 95.887634,40.438877 94.942207,45.597305 
	C94.761909,46.581070 92.624107,47.605820 91.237625,47.902771 
	C83.267586,49.609737 75.251823,51.103245 66.844559,52.751564 
z"/>
<path fill="#FF4F55" opacity="1.000000" stroke="none" 
	d="
M92.582031,2.719252 
	C91.478409,4.473122 90.282639,6.788546 88.381905,7.927979 
	C77.439545,14.487581 66.347122,20.798246 55.267010,27.125776 
	C52.112095,28.927458 48.770058,30.403425 45.631466,32.230801 
	C44.289032,33.012398 43.247612,34.311001 42.034813,35.734097 
	C30.982609,38.396500 19.965008,40.699482 8.326950,43.132156 
	C8.921213,37.888866 9.222504,33.124878 10.137415,28.481798 
	C10.401061,27.143816 12.282496,25.394934 13.675033,25.121376 
	C28.419939,22.224783 43.219776,19.608927 57.994469,16.861862 
	C60.738190,16.351719 63.586693,15.938087 66.095337,14.823705 
	C67.388321,14.249339 68.722565,12.286547 68.838173,10.854264 
	C69.072098,7.956066 70.330551,6.764045 73.025284,6.299042 
	C79.419395,5.195675 85.786346,3.934834 92.582031,2.719252 
z"/>
</svg>